# xmcd CD database file
#
# Track frame offsets:
#	150
#	17439
#	34184
#
# Disc length: 715 seconds
#
# Revision: 1
# Processed by: cddbd v1.4PL0 Copyright (c) Steve Scherf et al.
# Submitted via: CDex 1.40Beta9
#
DISCID=1702c903
DTITLE=Mere Mortal - Promo CD
DYEAR=2001
DGENRE=Metal
TTITLE0=Incarserated
TTITLE1=Suislide
TTITLE2=Hate
EXTD=YEAR: 2001 ID3G: 9
EXTT0=
EXTT1=
EXTT2=
PLAYORDER=
